<?xml version="1.0" encoding="UTF-8" standalone="no"?>
<svg
   xmlns:dc="http://purl.org/dc/elements/1.1/"
   xmlns:cc="http://creativecommons.org/ns#"
   xmlns:rdf="http://www.w3.org/1999/02/22-rdf-syntax-ns#"
   xmlns:svg="http://www.w3.org/2000/svg"
   xmlns="http://www.w3.org/2000/svg"
   xmlns:sodipodi="http://sodipodi.sourceforge.net/DTD/sodipodi-0.dtd"
   xmlns:inkscape="http://www.inkscape.org/namespaces/inkscape"
   width="400"
   height="400"
   viewBox="0 0 400 400"
   version="1.1"
   preserveAspectRatio="xMidYMid"
   id="svg6"
   sodipodi:docname="couchbase.svg"
   inkscape:version="0.92.1 unknown">
  <metadata
     id="metadata12">
    <rdf:RDF>
      <cc:Work
         rdf:about="">
        <dc:format>image/svg+xml</dc:format>
        <dc:type
           rdf:resource="http://purl.org/dc/dcmitype/StillImage" />
        <dc:title></dc:title>
      </cc:Work>
    </rdf:RDF>
  </metadata>
  <defs
     id="defs10" />
  <sodipodi:namedview
     pagecolor="#ffffff"
     bordercolor="#666666"
     borderopacity="1"
     objecttolerance="10"
     gridtolerance="10"
     guidetolerance="10"
     inkscape:pageopacity="0"
     inkscape:pageshadow="2"
     inkscape:window-width="1325"
     inkscape:window-height="747"
     id="namedview8"
     showgrid="false"
     inkscape:zoom="0.71934218"
     inkscape:cx="140.6202"
     inkscape:cy="28.567964"
     inkscape:window-x="41"
     inkscape:window-y="21"
     inkscape:window-maximized="1"
     inkscape:current-layer="svg6" />
  <g
     id="g4"
     transform="translate(72,72)">
    <path
       d="M 128,0 C 57.425982,0 0,57.232628 0,128 0,198.57402 57.232628,256 128,256 198.57402,256 256,198.76737 256,128 256,57.232628 198.57402,0 128,0 Z m 86.429,150.429 c 0,7.73414 -4.44713,14.50151 -13.14803,16.04834 -15.08157,2.70695 -46.79154,4.25378 -73.28097,4.25378 -26.48943,0 -58.199396,-1.54683 -73.280967,-4.25378 -8.700906,-1.54683 -13.148036,-8.3142 -13.148036,-16.04834 v -49.88519 c 0,-7.734142 5.993958,-14.888221 13.148036,-16.048342 4.44713,-0.773414 14.888218,-1.546828 23.009064,-1.546828 3.093655,0 5.60725,2.320242 5.60725,5.993958 v 34.996982 l 44.858003,-0.96677 44.85801,0.96677 V 88.942598 c 0,-3.673716 2.51359,-5.993958 5.60725,-5.993958 8.12085,0 18.56193,0.773414 23.00906,1.546828 7.34744,1.160121 13.14804,8.3142 13.14804,16.048342 C 214.429,116.97885 214.429,133.8006 214.429,150.429 Z"
       id="path2"
       inkscape:connector-curvature="0"
       style="fill:#ed2226" />
  </g>
</svg>
