<?xml version="1.0" encoding="UTF-8" standalone="no"?>
<svg
   xmlns:dc="http://purl.org/dc/elements/1.1/"
   xmlns:cc="http://creativecommons.org/ns#"
   xmlns:rdf="http://www.w3.org/1999/02/22-rdf-syntax-ns#"
   xmlns:svg="http://www.w3.org/2000/svg"
   xmlns="http://www.w3.org/2000/svg"
   xmlns:sodipodi="http://sodipodi.sourceforge.net/DTD/sodipodi-0.dtd"
   xmlns:inkscape="http://www.inkscape.org/namespaces/inkscape"
   width="400"
   height="400"
   viewBox="0 0 400 400"
   version="1.1"
   preserveAspectRatio="xMidYMid"
   id="svg62"
   sodipodi:docname="cassandra.svg"
   inkscape:version="0.92.1 unknown">
  <metadata
     id="metadata68">
    <rdf:RDF>
      <cc:Work
         rdf:about="">
        <dc:format>image/svg+xml</dc:format>
        <dc:type
           rdf:resource="http://purl.org/dc/dcmitype/StillImage" />
        <dc:title></dc:title>
      </cc:Work>
    </rdf:RDF>
  </metadata>
  <defs
     id="defs66" />
  <sodipodi:namedview
     pagecolor="#ffffff"
     bordercolor="#666666"
     borderopacity="1"
     objecttolerance="10"
     gridtolerance="10"
     guidetolerance="10"
     inkscape:pageopacity="0"
     inkscape:pageshadow="2"
     inkscape:window-width="1325"
     inkscape:window-height="747"
     id="namedview64"
     showgrid="false"
     inkscape:zoom="0.73926926"
     inkscape:cx="328.15601"
     inkscape:cy="216.37928"
     inkscape:window-x="41"
     inkscape:window-y="21"
     inkscape:window-maximized="1"
     inkscape:current-layer="svg62" />
  <g
     id="g60"
     transform="translate(71,115.45)">
    <g
       transform="translate(15,129)"
       id="g20"
       style="fill:#373535">
      <path
         d="m 15.9,13.2 c 2.2,0 4.2,0.5 5.3,1.5 0.2,1.6 -1.3,4.2 -2.2,4.2 -1.1,-0.4 -2.1,-0.6 -3.4,-0.6 -5.2,0 -7.8,5.4 -7.8,10.7 0,3.3 1.1,5.3 3.8,5.3 2.8,0 5.6,-1.9 7.2,-3.3 0.4,0.3 0.9,1.2 0.9,2.2 0,1.1 -0.3,2.2 -1.4,3.3 -1.8,1.8 -4.9,3.4 -9.4,3.4 -5.1,0 -8.7,-2.9 -8.7,-9.7 0.2,-9 6,-17 15.7,-17 z"
         id="path2"
         inkscape:connector-curvature="0" />
      <path
         d="m 32.7,34 c 2.8,0 7.9,-4.9 9.3,-14.3 0.1,-0.6 0.1,-0.7 0.2,-1.3 -0.6,-0.2 -1.5,-0.4 -2.3,-0.4 -2.1,0 -4.3,0.6 -6.2,3.3 -2,2.8 -2.9,6.3 -2.9,9.1 0,2.3 0.7,3.6 1.9,3.6 z m -9.2,-2.6 c 0,-3.4 1.1,-9.2 5.4,-13.5 3.7,-3.8 8.1,-4.7 12.2,-4.7 2.7,0 6.3,0.9 8.6,1.3 -0.6,2.5 -1.9,12 -2.6,17.5 -0.3,2.3 -0.4,5.6 -0.3,6.8 -1.9,0.8 -5.4,1 -6.4,1 -0.5,0 -0.6,-2.3 -0.5,-4.6 0.1,-0.7 0.2,-1.8 0.2,-2.3 -2.2,3.7 -6.6,6.8 -11.2,6.8 -3.3,0.1 -5.4,-2.7 -5.4,-8.3 z"
         id="path4"
         inkscape:connector-curvature="0" />
      <path
         d="m 63.9,13.2 c 2.3,0 4.6,0.9 5.6,1.9 -0.1,1.6 -1.3,4.3 -3.3,3.5 -0.9,-0.3 -1.7,-0.5 -2.9,-0.5 -1.5,0 -2.9,0.7 -2.9,2.1 0,1.1 0.8,1.9 4.6,4.6 2.7,2 3.8,3.8 3.8,6.3 0,4.2 -3.9,8.7 -10.8,8.7 -2.8,0 -5.3,-1.1 -6,-2.2 -1,-1.7 -0.2,-5.1 0.9,-4.5 1.5,0.7 3.9,1.5 5.9,1.5 1.9,0 3.1,-0.9 3.1,-2 0,-1 -0.9,-1.8 -4.3,-4.3 -2.9,-2.2 -3.8,-4.2 -3.8,-6.4 0,-4.8 4.1,-8.7 10.1,-8.7 z"
         id="path6"
         inkscape:connector-curvature="0" />
      <path
         d="m 83.6,13.2 c 2.3,0 4.6,0.9 5.6,1.9 -0.1,1.6 -1.3,4.3 -3.3,3.5 -0.9,-0.3 -1.7,-0.5 -2.9,-0.5 -1.5,0 -2.9,0.7 -2.9,2.1 0,1.1 0.8,1.9 4.6,4.6 2.7,2 3.8,3.8 3.8,6.3 0,4.2 -3.9,8.7 -10.8,8.7 -2.8,0 -5.2,-1.1 -6,-2.2 -1,-1.7 -0.2,-5.1 0.9,-4.5 1.5,0.7 3.9,1.5 5.9,1.5 1.9,0 3.1,-0.9 3.1,-2 0,-1 -0.9,-1.8 -4.3,-4.3 -2.9,-2.2 -3.8,-4.2 -3.8,-6.4 0,-4.8 4.1,-8.7 10.1,-8.7 z"
         id="path8"
         inkscape:connector-curvature="0" />
      <path
         d="m 101.5,34 c 2.8,0 7.9,-4.9 9.3,-14.3 0.1,-0.6 0.1,-0.7 0.2,-1.3 -0.6,-0.2 -1.5,-0.4 -2.3,-0.4 -2.1,0 -4.3,0.6 -6.2,3.3 -2,2.8 -2.9,6.3 -2.9,9.1 0.1,2.3 0.7,3.6 1.9,3.6 z m -9.2,-2.6 c 0,-3.4 1.1,-9.2 5.4,-13.5 3.7,-3.8 8.1,-4.7 12.2,-4.7 2.7,0 6.3,0.9 8.6,1.3 -0.6,2.5 -1.9,12 -2.6,17.5 -0.3,2.3 -0.4,5.6 -0.3,6.8 -1.9,0.8 -5.4,1 -6.4,1 -0.5,0 -0.6,-2.3 -0.5,-4.6 0.1,-0.7 0.2,-1.8 0.2,-2.3 -2.2,3.7 -6.6,6.8 -11.2,6.8 -3.2,0.1 -5.4,-2.7 -5.4,-8.3 z"
         id="path10"
         inkscape:connector-curvature="0" />
      <path
         d="m 131.4,20.6 c 2.6,-4.2 6,-7.4 10.8,-7.4 4.1,0 5.4,3.8 4.6,9.1 -0.4,2.5 -1.1,6.1 -1.5,9.4 -0.4,2.8 -0.7,5.3 -0.6,7 -1.5,0.7 -5.8,1 -6.8,1 -0.4,0 -0.5,-3.1 0.1,-6.4 0.5,-2.7 1.4,-7.7 1.9,-10.6 0.3,-1.7 0.2,-3.7 -1.4,-3.7 -2.1,0 -7.1,3.4 -9.6,17.2 -0.2,1.1 -0.6,1.8 -1.3,2.2 -0.9,0.5 -2.7,1 -6.4,1 0.7,-3.5 1.8,-10.6 2.6,-15.9 0.7,-4.8 1,-7.9 0.9,-9.1 1,-0.3 6.1,-1.4 6.6,-1.4 0.6,0 0.7,1.8 0.2,6 -0.1,0.4 -0.1,1 -0.2,1.4 h 0.1 z"
         id="path12"
         inkscape:connector-curvature="0" />
      <path
         d="m 160.4,33.9 c 2.5,0 7.6,-4.7 9,-13 0.1,-0.5 0.2,-1.3 0.3,-1.8 C 169,18.4 168,18 166.4,18 c -5.8,0 -8.3,6.9 -8.3,11.9 0.1,2.6 1,4 2.3,4 z m -3.7,5.9 c -3.7,0 -5.9,-3.3 -5.9,-8.8 0,-9.2 5.8,-17.7 15.5,-17.7 1.7,0 3.3,0.5 4.2,1 0.5,-2.6 1.7,-10.7 1.8,-13.1 1.6,-0.3 5,-0.8 6.6,-0.8 0.6,0 0.8,0.6 0.6,2.1 -1.4,8.6 -3.8,25 -4.3,28.6 -0.3,3.1 -0.4,6.1 -0.3,7.8 -1.8,0.8 -5.5,1 -6.5,1 -0.4,0 -0.6,-2.6 -0.5,-5 0.1,-0.7 0.2,-1.8 0.2,-2 -3.1,4.6 -7,6.9 -11.4,6.9 z"
         id="path14"
         inkscape:connector-curvature="0" />
      <path
         d="m 190.1,21.4 c 3,-6.7 6.6,-8.2 9,-8.2 0.7,0 1.9,0.5 2.4,1 0.2,1.9 -1.3,5.6 -2.6,7.1 -0.7,-0.3 -1.5,-0.7 -2.5,-0.7 -1.9,0 -5.8,3 -8.2,16 -0.2,1.1 -0.5,1.5 -1.1,1.8 -1,0.6 -4.8,1 -6.6,1.1 0.9,-4.7 2.3,-14.2 2.9,-19.8 0.2,-1.4 0.2,-4.1 0.1,-5.1 1.1,-0.5 5.4,-1.5 6.3,-1.5 0.5,0 0.9,3.1 0.1,8.2 h 0.2 z"
         id="path16"
         inkscape:connector-curvature="0" />
      <path
         d="m 210.2,34 c 2.8,0 7.9,-4.9 9.3,-14.3 0.1,-0.6 0.1,-0.7 0.2,-1.3 -0.6,-0.2 -1.5,-0.4 -2.3,-0.4 -2.1,0 -4.3,0.6 -6.2,3.3 -2,2.8 -2.9,6.3 -2.9,9.1 0.1,2.3 0.7,3.6 1.9,3.6 z M 201,31.4 c 0,-3.4 1.1,-9.2 5.4,-13.5 3.7,-3.8 8.1,-4.7 12.2,-4.7 2.7,0 6.3,0.9 8.6,1.3 -0.6,2.5 -1.9,12 -2.6,17.5 -0.3,2.3 -0.4,5.6 -0.3,6.8 -1.9,0.8 -5.4,1 -6.4,1 -0.5,0 -0.6,-2.3 -0.5,-4.6 0.1,-0.7 0.2,-1.8 0.2,-2.3 -2.2,3.7 -6.6,6.8 -11.2,6.8 -3.2,0.1 -5.4,-2.7 -5.4,-8.3 z"
         id="path18"
         inkscape:connector-curvature="0" />
    </g>
    <g
       id="g58">
      <path
         d="M 205.5,45.5 C 207.4,67.4 172.9,88.3 128.4,92.1 83.9,95.9 46.4,81.2 44.5,59.3 42.6,37.4 77.1,16.5 121.6,12.7 166,8.9 203.6,23.5 205.5,45.5"
         id="path22"
         inkscape:connector-curvature="0"
         style="fill:#bbe6fb" />
      <path
         d="M 122.8,15.2 C 105.8,14.9 86,21.7 71.2,28 c -1.5,4.4 -2.4,9.1 -2.4,14 0,26 23.5,47.1 52.5,47.1 29,0 52.6,-21 52.6,-47.1 0,-8.2 -2.4,-16 -6.5,-22.7 -11.8,-1.8 -28.1,-3.8 -44.6,-4.1"
         id="path24"
         inkscape:connector-curvature="0"
         style="fill:#ffffff" />
      <path
         d="m 121.4,15.2 c -9.4,-0.6 -25.6,4.3 -39.1,9.2 -2.1,4.8 -3.2,10.1 -3.2,15.7 0,22.8 20.7,41.3 42.5,41.3 21.7,0 40.9,-18.5 42.5,-41.3 0.5,-7.4 -2,-14.4 -5.6,-20.4 -13.9,-2.4 -28.7,-3.9 -37.1,-4.5"
         id="path26"
         inkscape:connector-curvature="0"
         style="fill:#ffffff" />
      <path
         d="m 97.3,37.2 c 1.2,-2.6 2.9,-3.8 4.6,-5.9 -0.2,-0.5 -0.6,-2.2 -0.6,-2.7 0,-2.6 2.1,-4.6 4.6,-4.6 0.6,0 1.2,0.1 1.7,0.3 7.7,-5.9 17.8,-8.4 28,-6.1 0.9,0.2 1.8,0.5 2.7,0.7 -10,-1.4 -21.4,2.2 -29.1,8.4 0.2,0.6 0.9,2.1 0.9,2.8 0,2.6 -1.7,3.2 -4.2,3.2 -0.6,0 -1.1,-0.1 -1.7,-0.3 -1.7,2.3 -3.9,6.8 -4.9,9.6 4.3,3.8 8.1,5.2 13.1,7.1 0,-0.2 0.2,-0.5 0.2,-0.7 0,-7.7 6.8,-14 14.5,-14 6.9,0 12.7,5 13.8,11.6 3.5,-2.2 6.8,-3.9 9.3,-7.1 -0.6,-0.7 -1.2,-2.8 -1.2,-3.8 0,-2.3 1.9,-4.2 4.2,-4.2 0.3,0 0.6,0 1,0.1 1.3,-2.7 2.3,-5.5 2.9,-8.4 -12.1,-9 -35.5,-7.7 -35.5,-7.7 0,0 -18.6,-1 -31.2,5.2 0.9,5.8 3.3,11.6 6.9,16.5"
         id="path28"
         inkscape:connector-curvature="0"
         style="fill:#373535" />
      <path
         d="m 155.1,33.7 c 0.9,0.8 1.3,1.4 1.7,2.1 1.1,2 -1.1,3.9 -3.5,3.9 -0.2,0 -0.5,0 -0.7,-0.1 -2.6,4.1 -7.2,9.3 -11.3,12 6.3,1 12.2,3.5 16.8,7.4 3.4,-6.1 6,-15 6,-22.5 0,-5.7 -2.5,-9.9 -6.3,-13 -0.1,3.1 -1.8,7.4 -2.7,10.2"
         id="path30"
         inkscape:connector-curvature="0"
         style="fill:#373535" />
      <path
         d="m 104.3,72.5 c 2.1,-5.8 7.2,-10.2 12.1,-14.1 -0.7,-1 -1.8,-3.4 -2.2,-4.5 -5.9,-1.8 -11.1,-5.2 -15.2,-9.6 0,0.1 -0.1,0.3 -0.1,0.4 -0.8,3.4 -0.9,6.9 -0.5,10.2 2.8,0.5 5,3 5,6 0,1.8 -1.6,4.3 -2.8,5.5 1.2,2.6 2.1,4 3.7,6.1"
         id="path32"
         inkscape:connector-curvature="0"
         style="fill:#373535" />
      <path
         d="m 103.9,77.3 c -2.5,-2.5 -4.2,-7.4 -5.8,-10.5 -0.3,0 -0.6,0.1 -0.9,0.1 -3.4,0 -6.9,-2.8 -6.1,-6.1 0.4,-1.8 1.7,-3 3.7,-4 -0.5,-3.8 -0.6,-9.1 0.3,-13 0.2,-1.1 0.8,-1.6 1.1,-2.7 -3.7,-5.4 -6.1,-12.6 -6.1,-19.7 v -0.8 c -6.3,3.2 -11,8.1 -11,15.9 0,17.3 10,34.3 24.8,40.9 v -0.1"
         id="path34"
         inkscape:connector-curvature="0"
         style="fill:#373535" />
      <path
         d="m 140.4,53.4 c -1.9,5.4 -7.1,9.4 -13.2,9.4 -3.3,0 -6.3,-1.1 -8.6,-3 -4.9,3.8 -9.4,10.5 -11.6,16.4 1,1.1 1.7,2 2.9,3 3.4,0.9 8.2,0 11.9,0 14.9,0 28.2,-6.6 35.8,-18.3 -5.2,-3.6 -11.2,-7 -17.2,-7.5"
         id="path36"
         inkscape:connector-curvature="0"
         style="fill:#373535" />
      <path
         d="m 96.9,39.2 c 1.2,-2.6 2.6,-4.9 4.3,-7.1 -0.2,-0.5 -0.3,-1.1 -0.3,-1.6 0,-2.6 2.1,-4.6 4.6,-4.6 0.6,0 1.2,0.1 1.7,0.3 7.7,-5.9 17.8,-8.4 28,-6.1 0.9,0.2 1.8,0.5 2.7,0.7 -10,-1.4 -20.4,1.7 -28.1,7.9 0.2,0.6 0.4,1.2 0.4,1.8 0,2.6 -2.1,4.6 -4.6,4.6 -0.6,0 -1.1,-0.1 -1.7,-0.3 -1.7,2.3 -3.2,4.9 -4.2,7.7 3.7,3.9 8.2,7.1 13.2,8.9 v -0.7 c 0,-7.7 6.3,-14 14,-14 6.9,0 12.7,5 13.8,11.6 3.5,-2.2 6.5,-5 9.1,-8.3 -0.6,-0.7 -1,-1.6 -1,-2.6 0,-2.3 1.9,-4.2 4.2,-4.2 0.3,0 0.6,0 1,0.1 1.3,-2.7 2.3,-5.5 2.9,-8.4 -12.1,-9 -35.5,-7.7 -35.5,-7.7 0,0 -18.6,-1 -31.2,5.2 0.7,6.1 3.1,11.9 6.7,16.8"
         id="path38"
         inkscape:connector-curvature="0"
         style="fill:#1287b1" />
      <path
         d="m 155.7,34.4 c 0.9,0.8 1.4,1.9 1.4,3.1 0,2.3 -1.9,4.2 -4.2,4.2 -0.2,0 -0.5,0 -0.7,-0.1 -2.6,4.1 -6.1,7.6 -10.2,10.2 6,0.9 11.7,3.5 16.4,7.4 3.4,-6.1 5.4,-13.2 5.4,-20.7 0,-5.7 -2.5,-9.9 -6.3,-13 -0.2,3.1 -0.8,6.1 -1.8,8.9"
         id="path40"
         inkscape:connector-curvature="0"
         style="fill:#1287b1" />
      <path
         d="M 104.9,73.8 C 107,68 110.6,62.9 115.5,59 c -0.7,-1 -1.3,-2 -1.7,-3.2 -5.9,-1.8 -11.1,-5.2 -15.2,-9.6 0,0.1 -0.1,0.3 -0.1,0.4 -0.8,3.4 -0.9,6.9 -0.5,10.2 2.8,0.5 5,3 5,6 0,1.8 -0.8,3.4 -2,4.5 1,2.3 2.4,4.5 3.9,6.5"
         id="path42"
         inkscape:connector-curvature="0"
         style="fill:#1287b1" />
      <path
         d="m 103.9,77.2 c -2.5,-2.5 -4.6,-5.3 -6.2,-8.4 -0.3,0 -0.6,0.1 -0.9,0.1 -3.4,0 -6.1,-2.7 -6.1,-6.1 0,-2.4 1.4,-4.5 3.4,-5.5 -0.5,-3.8 -0.3,-7.6 0.6,-11.5 0.2,-1.1 0.6,-2.2 0.9,-3.3 -3.7,-5.4 -5.9,-12 -5.9,-19.1 v -0.8 c -6.3,3.2 -11,8.1 -11,15.9 0,17.3 10.3,32.2 25.1,38.8 0.1,0 0.1,0 0.1,-0.1"
         id="path44"
         inkscape:connector-curvature="0"
         style="fill:#1287b1" />
      <path
         d="m 140,55.4 c -1.9,5.4 -7.1,9.4 -13.2,9.4 -3.3,0 -6.3,-1.1 -8.6,-3 -4.9,3.8 -8.6,9 -10.9,14.9 1,1.1 2.1,2.1 3.2,3.1 3.4,0.9 7,1.4 10.7,1.4 14.9,0 28.1,-7.7 35.7,-19.4 -5,-3.6 -10.9,-5.9 -16.9,-6.4"
         id="path46"
         inkscape:connector-curvature="0"
         style="fill:#1287b1" />
      <path
         d="m 140.5,51.8 12.9,-3.1 -13,-0.7 10.6,-8 -12,4.3 8.1,-11.3 -11.3,7.5 3.9,-13.2 -7.7,10.9 -0.2,-13.8 -5.1,12.3 -4.2,-12.4 0.2,14.6 -7.3,-13.1 4,13.9 -11.9,-8.6 9.3,11.7 -14.8,-5.4 11.6,8.6 -14.9,0.5 15.3,3.9 -15.3,3.3 15.1,1.1 -12.7,8.1 13.1,-4.7 -9.1,11.5 11.5,-9.3 -4.1,15.4 8.9,-12.6 -1.2,14.8 5,-13.5 4.3,14.1 1,-14.2 6.4,12.1 -3.8,-13.8 11.6,9 -7.5,-11.5 12.8,5 -9.8,-9.6 13.1,1 z"
         id="path48"
         inkscape:connector-curvature="0"
         style="fill:#ffffff" />
      <path
         d="M 2.8,76.5 C 42.9,36.4 74.9,24 104,18.4 c 3.8,-0.7 4.6,-9.2 4.6,-9.2 0,0 0.5,6.2 3.2,7 2.7,0.8 6.2,-9.7 6.2,-9.7 0,0 -3.2,9.4 0,10 3.2,0.5 9.2,-9.2 9.2,-9.2 0,0 -2.4,8.3 -0.8,8.9 1.6,0.5 9.7,-12.1 9.7,-12.1 0,0 -4.8,8.3 -0.3,9.2 4.6,0.8 11.3,-5.7 11.3,-5.7 0,0 -5.2,5.9 -2.9,6.8 10,3.5 18,-9.4 18,-9.4 0,0 -1.9,5.7 -6.7,11.9 C 166,19.6 173.8,3.8 173.8,3.8 L 166,19.6 c 4,2 20.1,-16.6 20.1,-16.6 0,0 -8.3,14.5 -13.2,17.5 2.7,2.2 12.4,-6.5 12.4,-6.5 0,0 -7.8,9.7 -4.8,10.2 4.3,3.5 20.2,-18 20.2,-18 0,0 -6.2,12.7 -15.3,22.6 C 193,32.7 212,8.2 212,8.2 c 0,0 -0.5,7.8 -14.3,20.2 10.2,-1.3 23.4,-20.7 23.4,-20.7 0,0 -4.8,14.5 -16.4,24.8 10,-1 26.1,-25.8 26.1,-25.8 0,0 -6.2,17.2 -18.8,27.2 14,3.1 34.2,-17.8 34.2,-17.8 0,0 -7.9,14.8 -18.3,20.9 11.6,4.4 27.5,-13.9 27.5,-13.9 0,0 -15.9,24.5 -41.2,23.4 C 205.9,46.1 180.8,21.3 127,23.3 55.8,25.9 40.8,56.1 2.8,76.5"
         id="path50"
         inkscape:connector-curvature="0"
         style="fill:#373535;fill-opacity:0.35" />
      <path
         d="M 4.4,73.5 C 44.5,33.4 76.5,21 105.6,15.4 c 3.8,-0.7 4.6,-9.2 4.6,-9.2 0,0 0.5,6.2 3.2,7 2.7,0.8 6.2,-9.7 6.2,-9.7 0,0 -3.2,9.4 0,10 3.2,0.5 9.2,-9.2 9.2,-9.2 0,0 -2.4,8.3 -0.8,8.9 1.6,0.5 9.7,-12.1 9.7,-12.1 0,0 -4.8,8.3 -0.3,9.2 4.6,0.8 11.3,-5.7 11.3,-5.7 0,0 -5.2,5.9 -2.9,6.8 10,3.5 18,-9.4 18,-9.4 0,0 -1.9,5.7 -6.7,11.9 10.5,2.7 18.3,-13.1 18.3,-13.1 l -7.8,15.8 c 4,2.2 20.2,-16.4 20.2,-16.4 0,0 -8.3,14.5 -13.2,17.5 2.7,1.9 12.4,-6.7 12.4,-6.7 0,0 -7.8,9.7 -4.8,10.2 4.3,3.5 20.2,-18 20.2,-18 0,0 -6.3,12.7 -15.4,22.6 7.6,3.8 26.7,-20.7 26.7,-20.7 0,0 -0.5,7.8 -14.3,20.2 10.2,-1.3 23.4,-20.7 23.4,-20.7 0,0 -4.8,14.5 -16.4,24.8 10,-1 26.1,-25.8 26.1,-25.8 0,0 -6.2,17.2 -18.8,27.2 14,3.1 34.2,-17.8 34.2,-17.8 0,0 -7.9,14.8 -18.3,20.9 11.6,4.4 27.5,-13.9 27.5,-13.9 0,0 -15.9,24.5 -41.2,23.4 C 207.6,43 182.5,18.2 128.7,20.2 57.5,22.9 42.4,53 4.4,73.5"
         id="path52"
         inkscape:connector-curvature="0"
         style="fill:#373535" />
      <path
         d="m 1.8,80.9 c 21.2,10.6 40.6,-1.6 65,5.3 18.6,5.2 41.2,11.7 71.9,7.2 30.7,-4.4 56.9,-17.8 69.5,-41.6 3.9,-10.6 19.8,2.4 19.8,2.4 0,0 -11.6,-4.8 -11.3,-2.6 0.3,2.3 17.4,10.2 17.4,10.2 0,0 -15.5,-4.8 -14.5,-1.2 0.9,3.6 19.4,18.2 19.4,18.2 0,0 -21.1,-15.8 -22.8,-13.6 -1.8,2.2 8.9,10.9 8.9,10.9 0,0 -17.6,-10.9 -23.8,-7.7 -4.5,2.3 18.3,17.2 18.3,17.2 0,0 -14.8,-11.3 -18.3,-8.3 -3.5,3 16.7,27.2 16.7,27.2 0,0 -23,-24.8 -25.3,-23.6 -2.3,1.2 6.3,13.1 6.3,13.1 0,0 -11.2,-12.4 -14.3,-10.3 -3.1,2.2 16.2,34.3 16.2,34.3 0,0 -20.9,-32.9 -29.6,-27.4 13.5,29.7 8.5,33.9 8.5,33.9 0,0 -1.7,-30.3 -18.6,-29.5 -8.5,0.4 4,22.6 4,22.6 0,0 -11.5,-20.3 -19.2,-19.9 14.1,26.8 9.1,37.6 9.1,37.6 0,0 2.3,-22.9 -16.8,-35.6 7.3,6.5 -4.6,35.6 -4.6,35.6 0,0 10.4,-42.9 -7.7,-34.7 -2.9,1.3 -0.2,21.4 -0.2,21.4 0,0 -3.6,-23 -9.1,-21.8 -3.2,0.7 -20.2,31.9 -20.2,31.9 0,0 13.9,-33.7 9.7,-32.3 -3.1,1 -8.9,14.9 -8.9,14.9 0,0 2.8,-13.7 0,-14.5 -2.8,-0.8 -18.6,14.5 -18.6,14.5 0,0 11.7,-13.7 9.7,-16.6 C 85.3,93.8 81.8,93.6 77.5,95.3 71.3,97.7 63,109 63,109 c 0,0 8.3,-11.5 6.9,-15.7 -2.3,-6.9 -26.2,13.3 -26.2,13.3 0,0 14.1,-13.3 10.9,-16.2 -3.2,-2.8 -20.8,-2 -26.2,-2 C 12.3,88.6 6.7,84.8 1.8,80.9"
         id="path54"
         inkscape:connector-curvature="0"
         style="fill:#373535;fill-opacity:0.35" />
      <path
         d="m 0.9,78.5 c 21.2,10.6 40.6,-1.6 65,5.3 18.6,5.2 41.2,11.7 71.9,7.2 30.7,-4.4 56.9,-17.8 69.5,-41.6 3.9,-10.6 19.8,2.4 19.8,2.4 0,0 -11.6,-4.8 -11.3,-2.6 0.3,2.3 17.4,10.2 17.4,10.2 0,0 -15.5,-4.8 -14.5,-1.2 0.9,3.6 19.4,18.2 19.4,18.2 0,0 -20.9,-15.9 -22.6,-13.7 -1.7,2.2 8.9,10.9 8.9,10.9 0,0 -17.6,-10.9 -23.8,-7.7 -4.5,2.3 18.3,17.2 18.3,17.2 0,0 -14.8,-11.3 -18.3,-8.3 -3.5,3 16.7,27.2 16.7,27.2 0,0 -22.9,-24.8 -25.2,-23.6 -2.3,1.2 6.3,13.1 6.3,13.1 0,0 -11.4,-12.3 -14.5,-10.2 -3.1,2.2 16.1,34.3 16.1,34.3 0,0 -20.9,-33 -29.5,-27.5 13.6,29.8 8.5,34 8.5,34 0,0 -1.7,-30.3 -18.6,-29.5 -8.5,0.4 4,22.6 4,22.6 0,0 -11.4,-20.2 -19.1,-19.8 14.1,26.8 9.1,37.6 9.1,37.6 0,0 2.3,-22.9 -16.8,-35.6 7.3,6.5 -4.6,35.6 -4.6,35.6 0,0 10.4,-42.9 -7.7,-34.7 -2.9,1.3 -0.2,21.4 -0.2,21.4 0,0 -3.6,-23 -9.1,-21.8 -3.2,0.7 -20.2,31.9 -20.2,31.9 0,0 13.9,-33.7 9.7,-32.3 -3.1,1 -8.9,14.9 -8.9,14.9 0,0 2.8,-13.7 0,-14.5 -2.8,-0.8 -18.6,14.5 -18.6,14.5 0,0 11.7,-13.7 9.7,-16.6 -3.1,-4.3 -6.6,-4.5 -10.9,-2.8 -6.2,2.4 -14.5,13.7 -14.5,13.7 0,0 8.3,-11.5 6.9,-15.7 C 66.9,84.1 43,104.3 43,104.3 43,104.3 57.1,91 53.9,88.1 50.7,85.3 33.1,86.1 27.7,86.1 11.4,86.2 5.8,82.4 0.9,78.5"
         id="path56"
         inkscape:connector-curvature="0"
         style="fill:#373535" />
    </g>
  </g>
</svg>
