<?xml version="1.0" encoding="UTF-8" standalone="no"?>
<svg
   xmlns:dc="http://purl.org/dc/elements/1.1/"
   xmlns:cc="http://creativecommons.org/ns#"
   xmlns:rdf="http://www.w3.org/1999/02/22-rdf-syntax-ns#"
   xmlns:svg="http://www.w3.org/2000/svg"
   xmlns="http://www.w3.org/2000/svg"
   xmlns:sodipodi="http://sodipodi.sourceforge.net/DTD/sodipodi-0.dtd"
   xmlns:inkscape="http://www.inkscape.org/namespaces/inkscape"
   width="400"
   height="400"
   viewBox="0 0 400 400"
   version="1.1"
   preserveAspectRatio="xMidYMid"
   id="svg9569"
   sodipodi:docname="default.svg"
   inkscape:version="0.92.1 unknown">
  <metadata
     id="metadata9575">
    <rdf:RDF>
      <cc:Work
         rdf:about="">
        <dc:format>image/svg+xml</dc:format>
        <dc:type
           rdf:resource="http://purl.org/dc/dcmitype/StillImage" />
        <dc:title></dc:title>
      </cc:Work>
    </rdf:RDF>
  </metadata>
  <defs
     id="defs9573" />
  <sodipodi:namedview
     pagecolor="#ffffff"
     bordercolor="#666666"
     borderopacity="1"
     objecttolerance="10"
     gridtolerance="10"
     guidetolerance="10"
     inkscape:pageopacity="0"
     inkscape:pageshadow="2"
     inkscape:window-width="1325"
     inkscape:window-height="747"
     id="namedview9571"
     showgrid="false"
     inkscape:object-nodes="false"
     inkscape:zoom="0.56350634"
     inkscape:cx="537.8424"
     inkscape:cy="170.99596"
     inkscape:window-x="41"
     inkscape:window-y="21"
     inkscape:window-maximized="1"
     inkscape:current-layer="svg9569" />
  <g
     id="g7568"
     transform="matrix(0.81176186,0,0,0.81176186,-503.87071,100.45046)">
    <path
       id="path7538"
       d="m 1072.2948,64.679988 c 0,0 -25.7859,19.593543 -48.5031,25.620916 3.5326,-6.246727 4.9426,-11.034147 5.1586,-11.812482 l 4.229,-15.227077 -15.5885,2.597887 c -3.4289,0.572154 -6.6763,0.86138 -9.6516,0.861953 -8.92363,0 -15.54263,-2.527441 -20.23555,-7.727224 -4.62648,-5.125902 -11.92302,-18.249354 -8.81025,-48.555745 L 978.9335,9.90959 C 979.27254,3.0752458 976.68955,-1.1497568 974.46164,-3.4904896 972.23145,-5.8335133 968.1376,-8.6267 961.29409,-8.6267 c -8.90246,0 -18.79803,4.860729 -19.89709,5.4151281 l -0.71877,0.3625358 -0.65233,0.4719266 C 910.57172,18.946067 901.43445,51.758708 898.75924,66.109513 c -4.7101,1.020599 -10.0691,1.536053 -16.00541,1.536053 -21.43142,5.72e-4 -45.98478,-6.72209 -59.72907,-12.969962 -10.53816,-4.789711 -64.73354,-28.764038 -96.91217,-30.372827 -1.09735,-0.05498 -2.20042,-0.0819 -3.27829,-0.0819 -23.45945,0 -36.01991,12.738581 -40.98659,19.406262 -11.83482,4.300602 -16.80895,12.791844 -17.65143,21.040822 -0.24685,0.357381 -0.47765,0.728508 -0.69071,1.114526 -1.62998,2.944959 -2.04463,6.33779 -1.17752,9.58114 l 3.06924,10.682492 0.0613,0.203891 c 0.26574,0.855081 0.55955,1.699852 0.85622,2.544051 0.13059,0.372845 0.26117,0.745689 0.4158,1.199289 l 2.37739,6.841217 0.1071,0.294954 c 0.6048,1.579579 1.23537,3.112769 1.84418,4.596129 0.31214,0.75886 0.62427,1.51887 0.9513,2.32928 l 1.37111,3.35446 0.0974,0.23138 c 0.36368,0.8316 0.75714,1.6506 1.1529,2.46788 0.16895,0.34993 0.33848,0.6993 0.53607,1.12025 l 3.13224,6.53423 3.7084,6.87959 c 0.19187,0.34765 0.37972,0.69644 0.567,1.0458 0.42038,0.78006 0.84248,1.56068 1.28749,2.32756 l 1.97018,3.25595 0.047,0.0762 c 0.42439,0.6867 0.84019,1.38028 1.25542,2.0727 0.84649,1.41063 1.72276,2.86936 2.70384,4.35501 l 4.0675,6.02909 c 1.03778,1.58187 2.09332,2.97074 3.11449,4.31664 0.47135,0.62027 0.94328,1.23996 1.40146,1.87053 l 0.40836,0.54924 c 1.38256,1.85449 2.81094,3.77255 4.42316,5.68603 l 4.54229,5.54055 4.98387,5.64422 c 1.34247,1.56068 2.69124,2.95355 3.99763,4.30118 0.42038,0.43355 0.84019,0.86711 1.31441,1.36366 l 2.51541,2.59216 0.083,0.0842 c 0.60709,0.61167 1.23079,1.20788 1.85449,1.80409 0.29094,0.27777 0.58246,0.55554 0.87111,0.83618 l 0.0985,0.0934 c 0.58533,0.55326 1.16321,1.11281 1.74223,1.67294 1.17524,1.13686 2.38999,2.31209 3.68951,3.47187 l 5.3716,4.81433 0.88944,0.76001 c 3.45755,2.93465 7.03194,5.96838 10.8274,8.83316 2.1145,1.67351 4.22099,3.21872 5.9426,4.4644 2.02173,1.48909 4.01195,2.94496 6.111,4.36532 3.87277,2.7216 8.06227,5.47126 12.44763,8.17052 4.28629,2.64256 8.59262,5.16255 12.79757,7.49011 2.50568,1.38772 4.60759,2.50683 6.60984,3.51941 2.12023,1.10421 4.35444,2.22218 6.57032,3.28802 4.27082,2.09904 8.73579,4.10874 13.61542,6.12817 4.74962,1.98736 9.53017,3.75766 14.20877,5.26393 0,0 56.60083,22.28937 126.37494,8.86351 15.76143,0 28.86713,-4.1305 35.05773,-11.04961 3.86648,-4.32179 5.32636,-8.78333 4.33726,-13.26148 -1.53605,-6.95347 -7.67396,-9.59259 -13.08852,-11.92072 -8.65389,-3.72101 -20.19261,-8.68368 -25.67876,-27.95478 32.21987,-2.95068 56.97761,-38.90358 56.97761,-38.90358 0,0 -6.9603,3.19065 -16.75045,5.87445 l 0.82014,-0.73996 c 22.42791,-12.95336 41.10801,-33.80346 41.10801,-33.80346 0,0 -10.3927,4.62877 -23.7928,8.53362 l 5.3384,-6.76561 c 28.8259,-12.10057 57.2526,-54.921602 57.2526,-54.921602 z"
       inkscape:connector-curvature="0"
       style="fill:#ffffff;stroke-width:0.57272643" />
    <path
       style="fill:#c3c0c0;fill-opacity:1;stroke-width:0.57272643"
       id="path7540"
       d="M 1019.2466,75.793744 C 967.88273,84.354286 966.16456,35.801405 968.87527,9.4101725 969.6433,-6.0402676 946.02177,5.7361327 945.933,5.7808053 911.45658,30.739076 907.76193,74.032038 907.76193,74.032038 880.33635,83.630932 837.71291,72.414658 818.85761,63.84438 800.00231,55.274103 753.03588,35.732678 725.60973,34.361571 698.18358,32.990464 688.2422,52.188253 688.2422,52.188253 674.50879,55.684175 673.68979,64.630734 674.25736,69.236027 l -0.22966,0.06529 -0.009,0.0023 c -1.50799,0.433553 -2.37911,2.007406 -1.94555,3.515394 l 0.003,0.01031 1.99939,6.953471 1.00113,3.478741 c 0.35795,1.151752 0.78062,2.282314 1.16778,3.424904 l 2.37739,6.841216 c 0.8631,2.253679 1.80982,4.475857 2.71186,6.716367 l 1.37111,3.35446 c 0.48453,1.10593 1.0332,2.18266 1.54693,3.27542 l 3.13224,6.53481 3.44782,6.37215 c 0.58246,1.05783 1.13629,2.13226 1.7428,3.17577 l 1.87625,3.09787 c 1.26859,2.0538 2.46387,4.15628 3.79432,6.16999 l 4.05089,6.00331 c 1.32128,2.0223 2.85619,3.88939 4.2754,5.84067 1.44213,1.93467 2.87394,3.87621 4.43061,5.71982 l 4.58525,5.59382 4.79029,5.41455 c 1.56927,1.83043 3.28344,3.52456 4.94606,5.26679 l 2.51484,2.59216 c 0.84821,0.85394 1.73135,1.67236 2.59503,2.51026 1.7491,1.65232 3.44323,3.36362 5.23758,4.96497 l 5.3716,4.81434 c 3.66545,3.1099 7.31772,6.23355 11.15499,9.1241 1.88084,1.4931 3.81207,2.91747 5.7559,4.32466 1.93181,1.42322 3.86705,2.839 5.85498,4.18205 3.92146,2.75882 7.93742,5.37904 12.01638,7.88987 4.07781,2.51313 8.20602,4.93633 12.39093,7.25244 2.09332,1.15862 4.19809,2.29262 6.33264,3.37049 2.11909,1.10537 4.25707,2.17235 6.41052,3.20842 4.28686,2.10706 8.65161,4.05089 13.06046,5.87617 4.40025,1.84131 8.87668,3.50909 13.40867,4.96783 -4.36475,-1.89859 -8.59204,-4.08125 -12.81361,-6.24444 -4.2124,-2.18495 -8.35493,-4.4959 -12.46138,-6.85553 -4.11504,-2.34417 -8.13844,-4.8447 -12.13779,-7.36641 -4.00336,-2.51656 -7.94028,-5.13277 -11.81649,-7.83031 -3.8619,-2.71759 -7.70031,-5.46324 -11.45281,-8.31771 -1.89974,-1.39688 -3.74334,-2.86421 -5.58351,-4.33726 -1.85163,-1.45701 -3.68951,-2.92949 -5.47298,-4.46669 -3.62478,-3.00567 -7.14189,-6.13161 -10.65156,-9.25984 l -5.13507,-4.83209 c -1.71474,-1.60593 -3.32582,-3.31781 -4.9936,-4.97012 -0.82301,-0.83733 -1.66549,-1.65576 -2.47131,-2.50855 l -2.38827,-2.58585 c -1.56813,-1.74567 -3.2548,-3.38253 -4.75649,-5.1849 l -4.61847,-5.30459 -4.41171,-5.4724 c -1.4994,-1.80237 -2.87222,-3.69981 -4.25708,-5.58809 -1.35965,-1.90546 -2.839,-3.7273 -4.10186,-5.6992 l -3.94036,-5.81088 c -1.30582,-1.94155 -2.47704,-3.969 -3.72272,-5.94891 l -1.84361,-2.98677 c -0.59506,-1.00628 -1.13801,-2.04234 -1.71073,-3.06237 l -3.38997,-6.14421 -3.08184,-6.30285 c -0.50572,-1.05439 -1.04637,-2.09274 -1.52403,-3.15973 l -1.40146,-3.215863 c -0.92495,-2.148297 -1.89629,-4.279412 -2.78517,-6.443172 l -2.46272,-6.574899 c -0.40263,-1.099062 -0.84076,-2.186669 -1.21475,-3.295468 l -1.05095,-3.351022 -1.28234,-4.082394 1.31326,-0.428972 0.68155,-0.22279 0.0624,-0.02062 0.10367,-0.02291 0.32473,-0.07159 c 1.72162,-0.420382 3.48848,-0.712472 5.2794,-0.912926 0.90204,-0.06644 1.80007,-0.169527 2.70785,-0.210191 l 2.73476,-0.06586 2.75253,0.06873 2.76283,0.191863 c 1.84246,0.174109 3.68721,0.391745 5.53139,0.676963 1.84533,0.268608 3.69122,0.586472 5.52853,0.969626 1.84189,0.360244 3.67461,0.794371 5.50734,1.235943 1.83043,0.454745 3.65628,0.94099 5.47698,1.458162 7.27878,2.085296 14.5083,4.503347 21.72122,7.037089 1.04236,0.353945 2.08759,0.706171 3.13167,1.060116 7.52448,3.420895 13.49057,6.246727 16.80952,6.92999 11.65613,2.399723 24.68336,-1.71417 37.02504,20.911955 12.34168,22.62613 74.04952,67.87896 74.04952,67.87896 23.31168,68.56451 94.61898,64.45062 106.27511,51.42339 11.65612,-13.02724 -29.48281,-2.05666 -38.39615,-51.42339 9.84115,-5.31662 18.58898,-11.73001 26.34713,-18.72758 -32.67977,4.27598 -72.73053,-10.32797 -97.1344,-22.55969 103.30324,18.28372 118.21932,-0.6174 118.21932,-0.6174 -32.28115,10.30907 -67.93909,-8.06743 -67.93909,-8.06743 58.05154,7.31372 74.50712,-9.94825 74.50712,-9.94825 -14.39834,7.54223 -36.11097,-6.27823 -36.11097,-6.27823 50.04879,2.74336 61.48049,-38.409893 61.48049,-38.409893 z M 830.34364,98.778973 c -2.62366,5.496457 -16.38743,4.397967 -30.74224,-2.45356 -14.35481,-6.851526 -23.86551,-16.861065 -21.24242,-22.357521 2.62366,-5.496455 16.38627,-4.397966 30.74223,2.45356 14.35482,6.851526 23.86551,16.861065 21.24243,22.357521 z"
       inkscape:connector-curvature="0" />
  </g>
</svg>
