<?xml version="1.0" encoding="UTF-8" standalone="no"?>
<svg
   xmlns:dc="http://purl.org/dc/elements/1.1/"
   xmlns:cc="http://creativecommons.org/ns#"
   xmlns:rdf="http://www.w3.org/1999/02/22-rdf-syntax-ns#"
   xmlns:svg="http://www.w3.org/2000/svg"
   xmlns="http://www.w3.org/2000/svg"
   xmlns:sodipodi="http://sodipodi.sourceforge.net/DTD/sodipodi-0.dtd"
   xmlns:inkscape="http://www.inkscape.org/namespaces/inkscape"
   width="400"
   height="400"
   viewBox="0 0 400 400"
   version="1.1"
   preserveAspectRatio="xMidYMid"
   id="svg30"
   sodipodi:docname="suse.svg"
   inkscape:version="0.92.1 unknown">
  <metadata
     id="metadata36">
    <rdf:RDF>
      <cc:Work
         rdf:about="">
        <dc:format>image/svg+xml</dc:format>
        <dc:type
           rdf:resource="http://purl.org/dc/dcmitype/StillImage" />
        <dc:title></dc:title>
      </cc:Work>
    </rdf:RDF>
  </metadata>
  <defs
     id="defs34" />
  <sodipodi:namedview
     pagecolor="#ffffff"
     bordercolor="#666666"
     borderopacity="1"
     objecttolerance="10"
     gridtolerance="10"
     guidetolerance="10"
     inkscape:pageopacity="0"
     inkscape:pageshadow="2"
     inkscape:window-width="1325"
     inkscape:window-height="747"
     id="namedview32"
     showgrid="false"
     inkscape:zoom="1.0454846"
     inkscape:cx="159.09295"
     inkscape:cy="113.66877"
     inkscape:window-x="41"
     inkscape:window-y="21"
     inkscape:window-maximized="1"
     inkscape:current-layer="svg30" />
  <g
     id="g28"
     transform="translate(71.624956,116.77224)">
    <path
       d="m 253.52428,151.30337 v 0.85334 c 0,1.87522 -1.42328,3.24477 -3.39332,3.24477 h -25.63055 c -1.86469,0 -3.25531,-1.40115 -3.25531,-3.24477 v -32.15276 c 0,-1.85416 1.4433,-3.24477 3.31852,-3.24477 l 0.0105,0.0316 h 24.49382 c 1.97004,0 3.4028,1.35901 3.4028,3.23319 v 0.85438 c 0,1.87418 -1.43276,3.23319 -3.4028,3.23319 H 229.1463 v 8.41745 h 15.37053 c 1.97004,0 3.4028,1.38113 3.4028,3.25531 v 0.84385 c 0,1.88576 -1.43276,3.24372 -3.4028,3.24372 H 229.1463 v 8.19621 h 20.98568 c 1.98057,0.001 3.39226,1.38114 3.39226,3.23529 z"
       id="path2"
       inkscape:connector-curvature="0"
       style="fill:#73ba25" />
    <path
       d="m 230.25251,17.256296 c 8.1014,0.284445 14.45505,7.111111 14.18008,15.201976 -0.14749,3.919012 -1.78989,7.543045 -4.65646,10.21893 -2.86551,2.686419 -6.5949,4.077037 -10.53498,3.940082 -8.09086,-0.294979 -14.43187,-7.111111 -14.16849,-15.201975 0.13695,-3.919013 1.77936,-7.553581 4.65646,-10.229465 2.86446,-2.675885 6.60438,-4.066502 10.52339,-3.929548 z m 10.33481,14.896461 c 0.18963,-5.762633 -4.32039,-10.608724 -10.08197,-10.808889 -2.79072,-0.105349 -5.44659,0.884939 -7.47984,2.79177 -2.0343,1.896296 -3.22475,4.477366 -3.30903,7.269136 -0.18963,5.762633 4.32039,10.608724 10.07249,10.819424 2.80231,0.08428 5.45712,-0.906009 7.50091,-2.802305 2.03325,-1.906831 3.21316,-4.487901 3.29744,-7.269136 z"
       id="path4"
       inkscape:connector-curvature="0"
       style="fill:#ffffff" />
    <path
       d="m 230.50535,21.343868 c 5.76263,0.200165 10.2716,5.046256 10.08197,10.808889 -0.0843,2.781235 -1.26419,5.362305 -3.29744,7.269136 -2.04379,1.896296 -4.6986,2.886584 -7.50091,2.802305 -5.7521,-0.2107 -10.26107,-5.056791 -10.07249,-10.819424 0.0843,-2.79177 1.27473,-5.37284 3.30903,-7.269136 2.03325,-1.906831 4.68807,-2.897119 7.47984,-2.79177 z m 6.34206,8.333169 c 0,-1.717202 -2.07645,-3.097284 -4.63539,-3.097284 -2.55895,0 -4.62486,1.380082 -4.62486,3.097284 0,1.696132 2.06486,3.086749 4.62486,3.086749 2.56,0 4.63539,-1.390617 4.63539,-3.086749 z"
       id="path6"
       inkscape:connector-curvature="0"
       style="fill:#73ba25" />
    <path
       d="m 232.21202,26.579753 c 2.56,0 4.63539,1.380082 4.63539,3.097284 0,1.696132 -2.07645,3.086749 -4.63539,3.086749 -2.55895,0 -4.62486,-1.390617 -4.62486,-3.086749 0,-1.717202 2.06486,-3.097284 4.62486,-3.097284 z"
       id="path8"
       inkscape:connector-curvature="0"
       style="fill:#ffffff" />
    <path
       d="m 214.49218,140.54716 v 5.1516 c 0,5.90065 -3.51868,9.70272 -9.00741,9.70272 h -20.933 c -1.97004,0 -3.39226,-1.38008 -3.39226,-3.24477 v -0.85334 c 0,-1.86574 1.42222,-3.23423 3.39226,-3.23423 h 19.85949 c 2.15967,0 2.22183,-2.96033 2.22183,-3.28692 v -3.08675 c 0,-1.01136 -0.40033,-2.20181 -2.22183,-2.20181 H 189.8614 c -4.14025,0 -8.6271,-3.39226 -8.6271,-8.85992 v -4.77234 c 0,-3.72938 3.51869,-9.10222 9.85969,-9.10222 v 0.0421 h 17.08879 c 1.99111,0 3.46601,1.40115 3.46601,3.23424 v 0.85333 c 0,1.85415 -1.46542,3.24477 -3.39332,3.24477 h -15.86568 c -2.08592,0 -3.27637,1.0219 -3.27637,2.81284 v 2.83391 c 0,1.15885 0.96921,2.74858 3.12994,2.74858 h 14.32757 c 3.94956,0.001 7.92125,2.48731 7.92125,8.01817 z"
       id="path10"
       inkscape:connector-curvature="0"
       style="fill:#73ba25" />
    <path
       d="m 170.99325,116.75918 c 1.90789,0 3.39332,1.49596 3.39332,3.40174 v 25.31556 c 0,5.88905 -4.62591,10.15677 -11.00906,10.15677 h -11.83078 c -6.3842,0 -11.008,-4.26772 -11.008,-10.15677 v -25.31556 c 0,-1.90683 1.5065,-3.40174 3.39227,-3.40174 h 1.07456 c 1.89735,0 3.4028,1.52757 3.4028,3.40174 v 24.379 c 0,1.94897 1.56971,3.51868 3.50815,3.51868 h 11.07226 c 1.9279,0 3.50815,-1.56971 3.50815,-3.51868 v -24.37795 c 0,-1.87417 1.52757,-3.40174 3.40175,-3.40174 h 0.0221 1.07246 z"
       id="path12"
       inkscape:connector-curvature="0"
       style="fill:#73ba25" />
    <path
       d="m 133.74156,140.54716 v 5.1516 c 0,5.90065 -3.53975,9.70272 -9.0074,9.70272 h -20.94354 c -1.98058,0 -3.4028,-1.38008 -3.4028,-3.24477 v -0.85334 c 0,-1.86574 1.43276,-3.23423 3.4028,-3.23423 h 19.85843 c 2.14914,0 2.20181,-2.96033 2.20181,-3.28692 v -3.08675 c 0,-1.01136 -0.37926,-2.20181 -2.20181,-2.20181 h -14.5488 c -4.16132,0 -8.62815,-3.39226 -8.62815,-8.85992 v -4.77234 c 0,-3.72938 3.50815,-9.10222 9.86074,-9.10222 l 0.0211,0.0421 h 17.09827 c 1.98058,0 3.46601,1.40115 3.46601,3.23424 v 0.85333 c 0,1.85415 -1.46436,3.24477 -3.4028,3.24477 h -15.86568 c -2.09646,0 -3.28691,1.0219 -3.28691,2.81284 v 2.83391 c 0,1.15885 0.96922,2.74858 3.12889,2.74858 h 14.31703 c 3.95062,0.001 7.93284,2.48731 7.93284,8.01817 z"
       id="path14"
       inkscape:connector-curvature="0"
       style="fill:#73ba25" />
    <path
       d="m 253.68231,52.295638 1.07562,-0.200165 c 0.29392,0.23177 0.25178,0.705844 0.15697,1.127243 -0.19911,0.979753 -0.67424,2.760165 -1.00083,3.602963 l -0.27391,0.695309 c -0.3782,1.032428 -0.75851,2.012181 -1.48543,2.60214 -2.00059,1.822551 -5.20322,3.276378 -10.21787,5.467654 -7.75375,3.392263 -20.32198,5.530864 -31.99474,5.457119 -4.18344,-0.09481 -8.22887,-0.558354 -11.77916,-0.958683 -10.87104,-1.243127 -18.73014,-2.128066 -20.36411,7.753745 -2.06486,12.389136 9.58788,27.433087 9.70377,27.568987 l -0.0116,0.41192 -0.37821,0.0948 c 0,0 -18.57317,-8.5544 -19.02722,-8.80724 l -0.58996,-0.420345 -0.47408,-0.454058 c -1.40115,-1.347424 -4.21399,-4.370963 -9.92395,-10.987983 -11.07226,-12.8 -24.03029,-14.485597 -34.01745,-12.052017 -2.43358,0.579424 -5.53086,2.359835 -7.54304,4.361482 -5.21481,5.14107 -4.62486,15.496954 -4.32988,19.268477 0.34766,4.266664 0.56889,4.582714 0.66371,4.930374 l -0.0632,0.43193 -0.36873,0.0421 -0.2107,-0.14749 -15.233578,-7.44823 -0.579423,-2.486255 C 95.025514,90.506008 94.57251,88.683457 93.708642,86.397366 88.262058,72.038189 76.020411,61.239835 62.535638,58.911605 53.422881,57.341893 36.809218,57.162798 28.01251,73.765926 c -3.676708,6.932016 -3.455473,15.960494 0.579424,23.566749 4.108642,7.786405 11.451523,12.778925 20.142881,13.737615 8.617613,0.93867 15.096625,-1.0535 18.731193,-5.76264 3.666173,-4.75127 4.350947,-11.219749 1.748807,-16.487238 -2.79177,-5.656231 -7.005761,-8.659754 -12.86321,-9.153844 -4.456296,-0.400329 -7.76428,1.453827 -8.954733,3.350123 -0.347654,0.591013 -0.979753,1.686651 -0.990288,3.244774 v 0.05267 c 0,4.245597 3.887408,5.404444 4.677531,5.458173 0.242305,0 1.411688,-0.0316 2.960329,-0.421399 l 0.747984,-0.241251 0.516214,-0.180149 0.379259,-0.07269 c 2.823375,-0.516214 5.541399,1.148313 6.331523,3.897942 0.136955,0.504626 0.210699,1.011359 0.210699,1.515984 0,1.822551 -0.927078,3.518683 -2.465185,4.551115 l 0.06321,-0.0221 -0.16856,0.0948 -0.252839,0.15803 c -0.811193,0.51621 -1.559177,0.80065 -2.3493,1.04296 -2.212346,0.72586 -4.171852,1.06403 -6.141893,1.06403 -6.721317,-0.0105 -16.086914,-5.794241 -16.213334,-16.655804 -0.06321,-6.131359 3.013004,-11.714898 8.427984,-15.307326 6.236708,-4.119176 17.013991,-5.520329 27.011687,0.611029 12.304856,7.532511 15.518025,22.280428 12.304856,32.342391 -4.666996,14.56988 -17.79358,22.35523 -35.123621,20.80658 C 35.049877,123.86081 23.651029,117.38179 16.866502,107.6264 13.853498,103.30601 11.620082,98.492576 10.419095,93.688625 7.6483951,82.700642 10.4507,71.027885 12.536626,65.85521 19.173663,49.410107 31.878848,35.26163 50.262387,23.789037 l 1.158848,-0.726914 C 90.527078,-0.96921811 118.20247,0 138.46123,0.70584362 162.35562,1.538107 187.83868,9.7764609 191.35737,10.945844 c 0.0116,-0.790124 0.14854,-7.9117699 0.14854,-7.9117699 l 0.10535,-0.2423045 0.27391,-0.073745 c 1.60237,0.2212346 35.93481,5.3201646 50.40039,13.7481484 1.7899,1.053498 2.67483,2.149136 3.78206,3.286913 3.99276,4.129712 9.28132,21.333334 9.83967,24.883622 l -0.2107,0.358189 c -0.2107,0.07374 -0.70584,0.442469 -1.36955,0.884938 -3.37119,2.359836 -11.26189,7.880165 -21.37547,6.974157 -9.09169,-0.800659 -20.96461,-6.015474 -35.28164,-15.44428 0.63315,1.485432 3.61349,8.543868 4.11917,9.734321 l 0.18963,0.231769 c 2.07645,1.074568 21.96649,11.209219 31.83776,11.009054 7.96129,-0.158025 16.46302,-4.045432 19.86582,-6.089218 z m -9.24972,-19.837366 c 0.27497,-8.090865 -6.07868,-14.917531 -14.18008,-15.201976 -3.91901,-0.136954 -7.65893,1.253663 -10.52339,3.929548 -2.87605,2.675884 -4.51951,6.310452 -4.65646,10.229465 -0.26338,8.090864 6.07868,14.906996 14.16849,15.201975 3.94008,0.136955 7.66947,-1.253663 10.53498,-3.940082 2.86552,-2.675885 4.50897,-6.299918 4.65646,-10.21893 z"
       id="path16"
       inkscape:connector-curvature="0"
       style="fill:#73ba25" />
    <path
       d="m 81.245761,133.37284 c 1.369548,-0.65212 3.076214,-1.45383 5.3307,-1.45383 h 0.695309 c 3.940082,0 6.489547,2.3493 6.489547,5.9628 v 15.82354 c 0,0.95763 -0.779589,1.73722 -1.717202,1.73722 h -0.674238 c -0.958684,0 -1.717202,-0.77959 -1.717202,-1.73722 V 138.4507 c 0,-1.43276 -1.169383,-2.60214 -2.591605,-2.60214 h -5.720494 c -1.432757,0 -2.591605,1.16833 -2.591605,2.60214 v 15.25465 c 0,0.95763 -0.779588,1.73722 -1.717202,1.73722 h -0.674238 c -0.958683,0 -1.717202,-0.77959 -1.717202,-1.73722 V 133.5414 c 0,-0.86282 0.579424,-1.47384 1.380082,-1.47384 h 0.663704 c 0.632099,0 1.095638,0.2739 1.348478,0.81119 l 0.474074,0.86387 c 0.200164,0.35819 0.305514,0.3782 0.568889,0.3782 0.589958,0 1.316872,-0.35819 2.170205,-0.74798 z"
       id="path18"
       inkscape:connector-curvature="0"
       style="fill:#73ba25" />
    <path
       d="m 69.899588,137.66058 v 4.66699 c 0,1.99217 -1.158847,3.17208 -3.076214,3.17208 H 54.845103 v 3.51869 c 0,1.73722 0.979753,2.64428 2.844444,2.64428 h 6.637037 c 0.990288,0 1.717202,0.68477 1.717202,1.62238 v 0.52675 c 0,0.94815 -0.726914,1.63292 -1.717202,1.63292 H 56.23572 c -2.991934,0 -5.520329,-2.65481 -5.520329,-5.77211 v -12.04359 c 0,-3.07621 2.60214,-5.56141 5.804774,-5.56141 l 0.01054,0.0211 h 7.55358 c 3.202634,-0.001 5.815308,2.50627 5.815308,5.57195 z m -4.150781,4.25613 v -3.73992 c 0,-1.30634 -1.011358,-2.3177 -2.307161,-2.3177 h -6.299918 c -1.306337,0 -2.30716,1.03243 -2.30716,2.3177 v 3.73992 z"
       id="path20"
       inkscape:connector-curvature="0"
       style="fill:#73ba25" />
    <path
       d="m 29.856132,149.04889 c 0,0.98923 0.547819,1.84362 1.359012,2.28609 l -0.969218,2.13755 c -0.179095,0 -0.379259,0.3171 -0.379259,0.61103 v 10.20839 c 0,0.93761 -0.769054,1.7172 -1.717202,1.7172 h -0.674239 c -0.969218,0 -1.717201,-0.76905 -1.717201,-1.7172 v -30.7516 c 0,-0.82068 0.611028,-1.47385 1.337942,-1.47385 h 0.769054 c 0.653168,0 1.179917,0.50463 1.295802,0.768 l 0.505679,1.00082 c 0.12642,0.1791 0.347654,0.28445 0.579424,0.28445 l 0.958683,2.06486 c -0.811193,0.43193 -1.348477,1.28632 -1.348477,2.28714 z"
       id="path22"
       inkscape:connector-curvature="0"
       style="fill:#73ba25" />
    <path
       d="m 38.410535,131.92955 c 3.950617,0 6.489547,2.34824 6.489547,5.96174 v 11.73702 c 0,3.67566 -2.486255,5.95121 -6.489547,5.95121 h -0.705844 c -2.26502,0 -3.971687,-0.77853 -5.330699,-1.40115 -0.842799,-0.38874 -1.559177,-0.70584 -2.128066,-0.70584 l 0.969218,-2.13755 c 0.368724,0.19911 0.790124,0.31605 1.232593,0.31605 h 5.720493 c 1.443293,0 2.591605,-1.16938 2.591605,-2.60214 v -10.57712 c 0,-1.45488 -1.137777,-2.59161 -2.591605,-2.59161 h -5.720493 c -0.453004,0 -0.874404,0.11484 -1.243128,0.30447 l -0.958683,-2.06486 c 0.568889,0 1.285267,-0.33607 2.106996,-0.7364 1.380082,-0.65316 3.076214,-1.46541 5.341234,-1.46541 v 0.0116 h 0.716379 z"
       id="path24"
       inkscape:connector-curvature="0"
       style="fill:#73ba25" />
    <path
       d="m 19.911111,137.62897 v 12.13735 c 0,3.11835 -2.528395,5.65728 -5.625679,5.65728 H 6.4474074 c -3.086749,0 -5.60460905,-2.53893 -5.60460905,-5.65728 v -12.13735 c 0,-3.07621 2.60213995,-5.56141 5.80477365,-5.56141 h 7.458765 c 3.202634,-10e-4 5.804774,2.49573 5.804774,5.56141 z m -4.129712,11.66222 v -11.06173 c 0,-1.28526 -1.085103,-2.37037 -2.359835,-2.37037 H 7.3112757 c -1.2958024,0 -2.3598354,1.06404 -2.3598354,2.37037 v 11.06173 c 0,1.32741 1.011358,2.35984 2.3071605,2.35984 h 6.1629632 c 1.306337,0 2.359835,-1.06403 2.359835,-2.35984 z"
       id="path26"
       inkscape:connector-curvature="0"
       style="fill:#73ba25" />
  </g>
</svg>
