<?xml version="1.0" encoding="UTF-8" standalone="no"?>
<svg
   xmlns:dc="http://purl.org/dc/elements/1.1/"
   xmlns:cc="http://creativecommons.org/ns#"
   xmlns:rdf="http://www.w3.org/1999/02/22-rdf-syntax-ns#"
   xmlns:svg="http://www.w3.org/2000/svg"
   xmlns="http://www.w3.org/2000/svg"
   xmlns:sodipodi="http://sodipodi.sourceforge.net/DTD/sodipodi-0.dtd"
   xmlns:inkscape="http://www.inkscape.org/namespaces/inkscape"
   width="400"
   height="400"
   viewBox="0 0 400 400"
   version="1.1"
   preserveAspectRatio="xMidYMid"
   id="svg10"
   sodipodi:docname="fedora.svg"
   inkscape:version="0.92.1 unknown">
  <metadata
     id="metadata16">
    <rdf:RDF>
      <cc:Work
         rdf:about="">
        <dc:format>image/svg+xml</dc:format>
        <dc:type
           rdf:resource="http://purl.org/dc/dcmitype/StillImage" />
        <dc:title></dc:title>
      </cc:Work>
    </rdf:RDF>
  </metadata>
  <defs
     id="defs14" />
  <sodipodi:namedview
     pagecolor="#ffffff"
     bordercolor="#666666"
     borderopacity="1"
     objecttolerance="10"
     gridtolerance="10"
     guidetolerance="10"
     inkscape:pageopacity="0"
     inkscape:pageshadow="2"
     inkscape:window-width="1325"
     inkscape:window-height="747"
     id="namedview12"
     showgrid="false"
     inkscape:zoom="0.35967109"
     inkscape:cx="266.42858"
     inkscape:cy="39.80919"
     inkscape:window-x="41"
     inkscape:window-y="21"
     inkscape:window-maximized="1"
     inkscape:current-layer="svg10" />
  <g
     id="g8"
     transform="translate(72,72.0015)">
    <path
       d="M 256,128.004 C 256,57.31 198.691,0 127.998,0 57.336,0 0.05,57.262 0,127.914 v 99.054 c 0.038,16.042 13.049,29.029 29.101,29.029 H 128.05 C 198.72,255.969 256,198.679 256,128.004"
       id="path2"
       inkscape:connector-curvature="0"
       style="fill:#294172" />
    <path
       d="m 165.58,30.307 c -33.109,0 -60.045,26.935 -60.045,60.045 v 31.87 H 73.797 c -33.109,0 -60.045,26.937 -60.045,60.046 0,33.108 26.936,60.045 60.045,60.045 33.109,0 60.045,-26.937 60.045,-60.045 v -31.871 h 31.738 c 33.109,0 60.046,-26.936 60.046,-60.045 0,-33.11 -26.937,-60.045 -60.046,-60.045 z m -59.823,151.961 c 0,17.622 -14.337,31.959 -31.96,31.959 -17.623,0 -31.96,-14.337 -31.96,-31.959 0,-17.623 14.337,-31.96 31.96,-31.96 h 31.738 v 0.089 h 0.222 z m 59.823,-59.956 h -31.738 v -0.09 h -0.221 v -31.87 c 0,-17.623 14.337,-31.96 31.959,-31.96 17.622,0 31.96,14.337 31.96,31.96 0,17.623 -14.338,31.96 -31.96,31.96 z"
       id="path4"
       inkscape:connector-curvature="0"
       style="fill:#3c6eb4" />
    <path
       d="m 178.851,32.128 c -4.66,-1.218 -8.238,-1.786 -13.271,-1.786 -33.177,0 -60.075,26.899 -60.075,60.074 v 31.842 h -25.16 c -7.845,0 -14.185,6.165 -14.18,13.996 0,7.782 6.27,13.973 14.032,13.973 l 20.831,0.004 c 2.473,0 4.479,2 4.479,4.469 v 27.553 c -0.031,17.491 -14.219,31.659 -31.71,31.659 -5.925,0 -7.392,-0.776 -11.437,-0.776 -8.497,0 -14.182,5.696 -14.182,13.528 0.002,6.479 5.554,12.049 12.348,13.827 4.66,1.218 8.238,1.787 13.271,1.787 33.177,0 60.075,-26.899 60.075,-60.075 v -31.841 h 25.16 c 7.845,0 14.185,-6.165 14.18,-13.996 0,-7.783 -6.27,-13.973 -14.032,-13.973 l -20.831,-0.004 c -2.473,0 -4.479,-2.001 -4.479,-4.47 V 90.366 c 0.031,-17.491 14.219,-31.659 31.71,-31.659 5.925,0 7.392,0.777 11.437,0.777 8.497,0 14.182,-5.697 14.182,-13.528 -0.002,-6.48 -5.554,-12.05 -12.348,-13.828"
       id="path6"
       inkscape:connector-curvature="0"
       style="fill:#ffffff" />
  </g>
</svg>
