<?xml version="1.0" encoding="UTF-8" standalone="no"?>
<svg
   xmlns:dc="http://purl.org/dc/elements/1.1/"
   xmlns:cc="http://creativecommons.org/ns#"
   xmlns:rdf="http://www.w3.org/1999/02/22-rdf-syntax-ns#"
   xmlns:svg="http://www.w3.org/2000/svg"
   xmlns="http://www.w3.org/2000/svg"
   xmlns:sodipodi="http://sodipodi.sourceforge.net/DTD/sodipodi-0.dtd"
   xmlns:inkscape="http://www.inkscape.org/namespaces/inkscape"
   width="400"
   height="400"
   viewBox="0 0 400 400"
   version="1.1"
   preserveAspectRatio="xMidYMid"
   id="svg32"
   sodipodi:docname="couchdb.svg"
   inkscape:version="0.92.1 unknown">
  <metadata
     id="metadata38">
    <rdf:RDF>
      <cc:Work
         rdf:about="">
        <dc:format>image/svg+xml</dc:format>
        <dc:type
           rdf:resource="http://purl.org/dc/dcmitype/StillImage" />
        <dc:title></dc:title>
      </cc:Work>
    </rdf:RDF>
  </metadata>
  <defs
     id="defs36" />
  <sodipodi:namedview
     pagecolor="#ffffff"
     bordercolor="#666666"
     borderopacity="1"
     objecttolerance="10"
     gridtolerance="10"
     guidetolerance="10"
     inkscape:pageopacity="0"
     inkscape:pageshadow="2"
     inkscape:window-width="1325"
     inkscape:window-height="747"
     id="namedview34"
     showgrid="false"
     inkscape:zoom="1.2766161"
     inkscape:cx="130.77721"
     inkscape:cy="71.38983"
     inkscape:window-x="41"
     inkscape:window-y="21"
     inkscape:window-maximized="1"
     inkscape:current-layer="svg32" />
  <g
     id="g30"
     transform="translate(72.130936,98.049172)">
    <path
       d="M 234.28697,57.171376 V 12.823486 H 21.774092 v 44.34789 H 5.1470092 V 148.03963 H 250.59347 V 57.171376 Z"
       id="path2"
       inkscape:connector-curvature="0"
       style="fill:#ff0000" />
    <path
       d="M 0.71045872,149.9702 V 52.733651 H 17.338716 V 8.3869358 H 238.72235 V 52.733651 h 16.30532 V 149.9702 Z m 6.93431188,-3.49123 239.5525894,0.2102 -1.03809,-85.082418 h -16.3112 V 17.257688 H 26.207119 V 61.606752 H 9.5788624 L 7.9571376,143.66415 Z"
       id="path4"
       inkscape:connector-curvature="0"
       style="fill:#eb1019" />
    <path
       d="M 32.847853,8.0193761 V 28.004991 l 7.574312,10.247046 22.264954,-7.56022 -0.09042,-30.17746838 z"
       id="path6"
       inkscape:connector-curvature="0"
       style="fill:#ffffff" />
    <path
       d="m 37.459376,109.96374 50.245285,11.35325 130.690349,-12.17644 0.0305,39.63303 H 37.358385 Z"
       id="path8"
       inkscape:connector-curvature="0"
       style="fill:#bd101d;stroke:#bd101d" />
    <path
       d="M 186.99626,81.835449 173.33901,76.169394 144.93827,56.78033 111.00653,67.106055 37.426495,61.535119 v 26.10378 L 84.083083,101.02488 217.40037,89.183119 v -27.22877 z"
       id="path10"
       inkscape:connector-curvature="0"
       style="fill:#bd101d;stroke:#bd101d" />
    <path
       d="M 17.319927,44.215193 8.9095046,53.11178 V 76.966752 L 20.784147,82.020991 V 68.242789 l 5.053064,3.95978 v -9.413285 l 11.589284,-0.0023 21.449982,32.298275 7.910165,2.157211 10.741431,44.5123 5.573285,2.31104 3.942165,16.28536 h 31.082867 l -14.94782,-61.778205 42.22591,-27.417834 22.96484,19.40433 5.57916,-2.185395 2.11728,5.769395 41.33461,-3.709651 -3.58753,-9.157285 L 190.55677,75.589284 148.44712,41.279413 102.5644,58.68389 88.465615,40.129761 109.70539,18.536514 h 20.24397 l 7.98649,6.728807 v -6.728807 h 15.91076 L 150.00308,9.6070459 103.39934,2.2276697 60.376073,29.781725 Z"
       id="path12"
       inkscape:connector-curvature="0"
       style="fill:#ffffff" />
    <g
       transform="translate(3.522936,156.18349)"
       id="g28"
       style="fill:#000000">
      <path
         d="m 34.06444,45.195743 c -1.877724,0.971156 -6.019523,2.006899 -11.261651,2.006899 -13.8498349,0 -22.26377983,-8.736881 -22.26377983,-22.005431 0,-14.367706 9.96638583,-23.0411743 23.29952283,-23.0411743 5.242129,0 8.996404,1.1015046 10.614606,1.9411376 l -1.747376,6.3424587 c -2.071487,-0.9053945 -4.918019,-1.682789 -8.54312,-1.682789 -8.867229,0 -15.274275,5.566239 -15.274275,16.050495 0,9.578863 5.630826,15.728734 15.209688,15.728734 3.236404,0 6.601982,-0.64822 8.672294,-1.618201 z"
         id="path14"
         inkscape:connector-curvature="0" />
      <path
         d="m 68.42833,30.440514 c 0,11.584587 -8.154422,16.762128 -16.180844,16.762128 -8.931816,0 -15.792147,-6.148697 -15.792147,-16.245431 0,-10.355083 6.795744,-16.698716 16.310019,-16.698716 9.383926,0.0012 15.662972,6.603156 15.662972,16.182019 z m -23.753981,0.322935 c 0,6.084111 2.97688,10.679193 7.831486,10.679193 4.530495,0 7.702312,-4.465908 7.702312,-10.808367 0,-4.918018 -2.200661,-10.548844 -7.636551,-10.548844 -5.632,0 -7.897247,5.434716 -7.897247,10.678018 z"
         id="path16"
         inkscape:connector-curvature="0" />
      <path
         d="m 102.09703,37.041321 c 0,3.754275 0.12917,6.86033 0.25952,9.449688 H 95.365872 L 94.977174,41.702165 H 94.848 c -1.358679,2.265248 -4.465908,5.501652 -10.096734,5.501652 -5.76,0 -11.003303,-3.430166 -11.003303,-13.721835 V 14.971303 h 7.960661 v 17.150825 c 0,5.242129 1.682789,8.607707 5.889174,8.607707 3.171817,0 5.242129,-2.265248 6.08411,-4.272147 0.259523,-0.711633 0.453285,-1.55244 0.453285,-2.459009 V 14.970128 h 7.960657 v 22.071193 z"
         id="path18"
         inkscape:connector-curvature="0" />
      <path
         d="m 132.6996,45.519853 c -1.68397,0.777395 -4.98378,1.683964 -8.93182,1.683964 -9.83721,0 -16.24426,-6.342459 -16.24426,-16.116257 0,-9.449688 6.47164,-16.82789 17.53953,-16.82789 2.91229,0 5.89034,0.647046 7.70231,1.489027 l -1.42327,5.953762 c -1.29526,-0.582459 -3.17064,-1.229505 -6.01952,-1.229505 -6.08411,0 -9.70804,4.465908 -9.64345,10.225908 0,6.472808 4.20756,10.161321 9.64345,10.161321 2.78312,0 4.72426,-0.582458 6.27787,-1.229504 z"
         id="path20"
         inkscape:connector-curvature="0" />
      <path
         d="m 137.28176,0.53783486 h 8.02525 V 19.306862 h 0.13035 c 0.96998,-1.489027 2.32866,-2.783119 3.94686,-3.623926 1.55244,-0.905395 3.43134,-1.424441 5.43706,-1.424441 5.37131,0 11.00331,3.55934 11.00331,13.656074 v 18.575266 h -7.96066 V 28.821138 c 0,-4.595083 -1.68397,-8.026422 -6.08529,-8.026422 -3.10605,0 -5.30789,2.071486 -6.14752,4.465908 -0.25952,0.64822 -0.32411,1.490202 -0.32411,2.395596 v 18.833615 h -8.02525 z"
         id="path22"
         inkscape:connector-curvature="0" />
      <path
         d="m 173.49519,3.4501284 c 3.49593,-0.5824587 7.96066,-0.9053945 12.68609,-0.9053945 8.15443,0 13.78525,1.682789 17.79788,5.048367 4.20756,3.4301651 6.79574,8.6077061 6.79574,16.0516701 0,7.765724 -2.65395,13.590312 -6.79574,17.345761 -4.33556,3.948037 -11.26166,5.953762 -19.74019,5.953762 -4.66084,0 -8.15442,-0.259523 -10.74378,-0.582459 z m 7.96066,36.9567706 c 1.10033,0.193762 2.78312,0.193762 4.40132,0.193762 10.35509,0.06576 16.50378,-5.630826 16.50378,-16.698716 0.0658,-9.64345 -5.50165,-15.1439266 -15.46803,-15.1439266 -2.5236,0 -4.33674,0.1937614 -5.43707,0.4532844 z"
         id="path24"
         inkscape:connector-curvature="0" />
      <path
         d="m 216.78385,3.4501284 c 2.5236,-0.5166972 7.11868,-0.9053945 11.58459,-0.9053945 5.89035,0 9.51545,0.7116331 12.49233,2.7831193 2.71736,1.6182018 4.52932,4.4659083 4.52932,8.1544218 0,4.012624 -2.5236,7.702312 -7.24903,9.449688 v 0.129175 c 4.59626,1.164917 8.80265,4.788844 8.80265,10.808367 0,3.883449 -1.68279,6.924917 -4.20639,8.996403 -3.10723,2.717358 -8.22018,4.077211 -16.18084,4.077211 -4.40132,0 -7.76573,-0.322935 -9.77263,-0.582458 z m 7.89608,17.2165876 h 4.07838 c 5.50165,0 8.60771,-2.588184 8.60771,-6.277872 0,-4.078385 -3.10723,-5.9537614 -8.15442,-5.9537614 -2.32984,0 -3.68969,0.1291743 -4.5305,0.3229358 V 20.666716 Z m 0,20.064293 c 1.03574,0.193762 2.39559,0.193762 4.20756,0.193762 5.11295,0 9.64345,-1.941138 9.64345,-7.313615 0,-5.048367 -4.40133,-7.118679 -9.90298,-7.118679 h -3.94803 z"
         id="path26"
         inkscape:connector-curvature="0" />
    </g>
  </g>
</svg>
